# File created by Blade
# Date/Time:  Wed Apr 08 17:39:41 2015
#---------------------------------------------------------
:version 1.10
:name HOM
:units
  mass 1.0
  length 1.000000
  angle deg
:documentation
     Acclaim Skeleton File
:root
   axis xyz
   order TX TY TZ RX RY RZ
   position 0.000000 0.000000 0.000000
   orientation 0 0 0
:bonedata
   begin
      id 1
      name Spine_dum
      direction 0.000000 1.000000 0.000000
      length 5.893853
      axis 0.0 0.0 0.0 xyz
   end
   begin
      id 2
      name LeftUpLeg_dum
      direction 1.000000 0.000000 0.000000
      length 3.697939
      axis 0.0 0.0 0.0 xyz
   end
   begin
      id 3
      name RightUpLeg_dum
      direction -1.000000 0.000000 0.000000
      length 3.697939
      axis 0.0 0.0 0.0 xyz
   end
   begin
      id 4
      name Spine
      direction 0.000000 1.000000 0.000000
      length 0.000000
      axis 0.0 0.0 0.0 xyz
      dof rx ry rz
   end
   begin
      id 5
      name Spine_dum1
      direction 0.000000 1.000000 0.000000
      length 16.447146
      axis 0.0 0.0 0.0 xyz
   end
   begin
      id 6
      name Spine_dum2
      direction 0.000000 1.000000 0.000000
      length 10.900383
      axis 0.0 0.0 0.0 xyz
   end
   begin
      id 7
      name Spine_dum3
      direction 0.000000 1.000000 0.000000
      length 10.900383
      axis 0.0 0.0 0.0 xyz
   end
   begin
      id 8
      name Head
      direction 0.000000 1.000000 0.000000
      length 4.527550
      axis 0.0 0.0 0.0 xyz
      dof rx ry rz
   end
   begin
      id 9
      name LeftShoulder
      direction 1.000000 0.000000 0.000000
      length 8.219464
      axis 0.0 0.0 -90.0 xyz
      dof rx ry rz
   end
   begin
      id 10
      name LeftArm
      direction 1.000000 0.000000 0.000000
      length 11.094937
      axis 0.0 0.0 -90.0 xyz
      dof rx ry rz
   end
   begin
      id 11
      name LeftForeArm
      direction 1.000000 0.000000 0.000000
      length 9.103875
      axis 0.0 0.0 -90.0 xyz
      dof ry rz rx
   end
   begin
      id 12
      name LeftHand
      direction 0.000000 0.000000 0.000000
      length 0.000000
      axis 0.0 0.0 -90.0 xyz
      dof rx ry rz
   end
   begin
      id 13
      name LeftHand_dum1
      direction 0.000000 0.000000 0.000000
      length 0.000000
      axis 0.0 0.0 -90.0 xyz
   end
   begin
      id 14
      name LeftHand_dum2
      direction 1.000000 0.000000 0.000000
      length 3.937000
      axis 0.0 0.0 -90.0 xyz
   end
   begin
      id 15
      name LeftHandThumb1
      direction 0.000000 0.000000 1.000000
      length 3.937000
      axis 0.0 0.0 -90.0 xyz
      dof rx rz ry
   end
   begin
      id 16
      name RightShoulder
      direction -1.000000 0.000000 0.000000
      length 8.219464
      axis 0.0 0.0 90.0 xyz
      dof rx ry rz
   end
   begin
      id 17
      name RightArm
      direction -1.000000 0.000000 0.000000
      length 11.094937
      axis 0.0 0.0 90.0 xyz
      dof rx ry rz
   end
   begin
      id 18
      name RightForeArm
      direction -1.000000 0.000000 0.000000
      length 9.103875
      axis 0.0 0.0 90.0 xyz
      dof ry rz rx
   end
   begin
      id 19
      name RightHand
      direction 0.000000 0.000000 0.000000
      length 0.000000
      axis 0.0 0.0 90.0 xyz
      dof rx ry rz
   end
   begin
      id 20
      name RightHand_dum1
      direction 0.000000 0.000000 0.000000
      length 0.000000
      axis 0.0 0.0 90.0 xyz
   end
   begin
      id 21
      name RightHand_dum2
      direction -1.000000 0.000000 0.000000
      length 3.937000
      axis 0.0 0.0 90.0 xyz
   end
   begin
      id 22
      name RightHandThumb1
      direction 0.000000 0.000000 1.000000
      length 3.937000
      axis 0.0 0.0 90.0 xyz
      dof rx rz ry
   end
   begin
      id 23
      name LeftUpLeg
      direction 0.000000 -1.000000 0.000000
      length 16.181467
      axis 0.0 0.0 0.0 xyz
      dof rx ry rz
   end
   begin
      id 24
      name LeftLeg
      direction 0.000000 -1.000000 0.000000
      length 16.501392
      axis 0.0 0.0 0.0 xyz
      dof rx ry rz
   end
   begin
      id 25
      name LeftFoot
      direction 0.000000 -0.258819 0.965926
      length 6.408245
      axis 15.0 0.0 0.0 xyz
      dof rx ry rz
   end
   begin
      id 26
      name LeftToeBase
      direction 0.000000 0.000000 1.000000
      length 2.952750
      axis 0.0 0.0 0.0 xyz
      dof rx ry rz
   end
   begin
      id 27
      name RightUpLeg
      direction 0.000000 -1.000000 0.000000
      length 16.181467
      axis 0.0 0.0 0.0 xyz
      dof rx ry rz
   end
   begin
      id 28
      name RightLeg
      direction 0.000000 -1.000000 0.000000
      length 16.501392
      axis 0.0 0.0 0.0 xyz
      dof rx ry rz
   end
   begin
      id 29
      name RightFoot
      direction 0.000000 -0.258819 0.965926
      length 6.408245
      axis 15.0 0.0 0.0 xyz
      dof rx ry rz
   end
   begin
      id 30
      name RightToeBase
      direction 0.000000 0.000000 1.000000
      length 2.952750
      axis 0.0 0.0 0.0 xyz
      dof rx ry rz
   end
:hierarchy
   begin
      root Spine_dum LeftUpLeg_dum RightUpLeg_dum
      Spine_dum Spine
      LeftUpLeg_dum LeftUpLeg
      RightUpLeg_dum RightUpLeg
      Spine Spine_dum1 Spine_dum2 Spine_dum3
      Spine_dum1 Head
      Spine_dum2 LeftShoulder
      Spine_dum3 RightShoulder
      LeftShoulder LeftArm
      LeftArm LeftForeArm
      LeftForeArm LeftHand
      LeftHand LeftHand_dum1 LeftHand_dum2
      LeftHand_dum1 LeftHandThumb1
      RightShoulder RightArm
      RightArm RightForeArm
      RightForeArm RightHand
      RightHand RightHand_dum1 RightHand_dum2
      RightHand_dum1 RightHandThumb1
      LeftUpLeg LeftLeg
      LeftLeg LeftFoot
      LeftFoot LeftToeBase
      RightUpLeg RightLeg
      RightLeg RightFoot
      RightFoot RightToeBase
   end

# File created by Blade
# Date/Time:  Wed Apr 08 17:39:35 2015
# Frame Rate: 120.000 fps
#------------------------------------------------------
:FULLY-SPECIFIED
:DEGREES
916
root 6.401898 35.953785 3.249919 9.945014 -58.272324 -361.185536
Spine -10.439255 -2.335157 -7.726802
Head 40.114303 11.713503 20.294877
LeftShoulder -8.814093 21.739805 13.739577
LeftArm 19.323215 17.183755 -76.795629
LeftForeArm 18.307187 0.000000 25.084270
LeftHand -12.575899 -0.000000 -11.465150
LeftHandThumb1 -26.253704 0.000000 33.147579
RightShoulder -38.351237 -50.073059 21.683044
RightArm 56.082731 -19.467459 45.217461
RightForeArm -4.096541 -0.000000 20.597272
RightHand -4.646671 -0.000000 26.692836
RightHandThumb1 -24.326973 -0.000000 -32.862282
LeftUpLeg -10.966600 1.270719 -5.657745
LeftLeg 16.727306 -0.000000 -0.000000
LeftFoot -15.507020 7.272301 -0.217800
LeftToeBase 4.628906 -0.000000 -0.000000
RightUpLeg -71.568897 2.031527 4.770290
RightLeg 61.973953 -0.000000 -0.000000
RightFoot -4.056981 -19.940502 3.888880
RightToeBase -21.680660 -0.000000 0.000000
917
root 6.432730 35.951090 3.232128 10.434821 -58.506408 -361.144347
Spine -11.087344 -2.289461 -7.678162
Head 40.194355 11.762634 20.294811
LeftShoulder -8.871695 21.801729 13.744728
LeftArm 19.264103 17.301383 -76.762349
LeftForeArm 18.319671 0.000000 24.927624
LeftHand -12.584904 -0.000000 -11.553731
LeftHandThumb1 -26.253704 0.000000 33.147579
RightShoulder -38.370436 -50.096925 21.628906
RightArm 56.136092 -19.572328 45.228521
RightForeArm -3.877675 -0.000000 20.715139
RightHand -4.610039 0.000000 27.264750
RightHandThumb1 -24.326973 -0.000000 -32.862282
LeftUpLeg -11.628411 0.981961 -5.694515
LeftLeg 16.907220 -0.000000 -0.000000
LeftFoot -15.517078 7.579784 -0.378572
LeftToeBase 4.459808 -0.000000 -0.000000
RightUpLeg -72.074531 2.086704 4.778713
RightLeg 61.997487 -0.000000 -0.000000
RightFoot -1.542019 -19.245731 4.593560
RightToeBase -19.302713 -0.000000 0.000000
918
root 6.455616 35.946111 3.220784 10.689353 -58.768460 -361.090170
Spine -11.459967 -2.191832 -7.661750
Head 40.211895 11.823830 20.310973
LeftShoulder -8.922041 21.833920 13.734987
LeftArm 19.217355 17.355679 -76.729107
LeftForeArm 18.370604 0.000000 24.767245
LeftHand -12.538826 -0.000000 -11.806977
LeftHandThumb1 -26.253704 0.000000 33.147579
RightShoulder -38.404540 -50.108668 21.648394
RightArm 56.192399 -19.569198 45.268407
RightForeArm -3.590147 -0.000000 20.862899
RightHand -4.812799 -0.000000 27.285106
RightHandThumb1 -24.326973 -0.000000 -32.862282
LeftUpLeg -12.001582 0.839559 -5.748480
LeftLeg 16.987052 -0.000000 -0.000000
LeftFoot -15.522878 7.832645 -0.439940
LeftToeBase 4.335330 -0.000000 -0.000000
RightUpLeg -72.367618 2.125059 4.807144
RightLeg 62.041778 -0.000000 -0.000000
RightFoot 1.353404 -18.582976 5.419407
RightToeBase -16.460231 -0.000000 0.000000
919
root 6.478179 35.941047 3.212203 10.928664 -59.081007 -361.004413
Spine -11.867849 -2.097480 -7.658494
Head 40.253443 11.963641 20.326156
LeftShoulder -8.985311 21.874043 13.715674
LeftArm 19.128974 17.379731 -76.716212
LeftForeArm 18.453030 -0.000000 24.582573
LeftHand -12.494716 -0.000000 -11.927796
LeftHandThumb1 -26.253704 0.000000 33.147579
RightShoulder -38.430776 -50.159829 21.659452
RightArm 56.269781 -19.567169 45.254176
RightForeArm -3.002755 0.000000 21.066966
RightHand -5.025615 -0.000000 27.731610
RightHandThumb1 -24.326973 -0.000000 -32.862282
LeftUpLeg -12.350514 0.763803 -5.840713
LeftLeg 17.004872 -0.000000 -0.000000
LeftFoot -15.513934 8.124619 -0.428288
LeftToeBase 4.179695 -0.000000 -0.000000
RightUpLeg -72.681445 2.225557 4.773787
RightLeg 62.104302 -0.000000 -0.000000
RightFoot 4.468616 -17.827010 6.712464
RightToeBase -13.070331 -0.000000 0.000000
920
root 6.504579 35.936335 3.203711 11.178838 -59.364060 -360.906873
Spine -12.278620 -2.043538 -7.638987
Head 40.296504 12.060695 20.305896
LeftShoulder -9.068808 21.966405 13.666568
LeftArm 19.114123 17.388476 -76.683873
LeftForeArm 18.497051 -0.000000 24.389262
LeftHand -12.493176 0.000000 -12.021543
LeftHandThumb1 -26.253704 0.000000 33.147579
RightShoulder -38.510569 -50.175031 21.718614
RightArm 56.395117 -19.544961 45.199602
RightForeArm -2.660817 -0.000000 21.151232
RightHand -5.107846 -0.000000 27.533883
RightHandThumb1 -24.326973 -0.000000 -32.862282
LeftUpLeg -12.725784 0.638197 -5.938151
LeftLeg 17.020404 -0.000000 -0.000000
LeftFoot -15.488880 8.429573 -0.454760
LeftToeBase 3.983616 -0.000000 -0.000000
RightUpLeg -73.022001 2.307675 4.697661
RightLeg 62.162230 -0.000000 -0.000000
RightFoot 7.841619 -16.918836 8.222817
RightToeBase -9.546814 -0.000000 0.000000
921
root 6.525135 35.929754 3.195563 11.322357 -59.639753 -360.822017
Spine -12.548352 -1.987316 -7.625636
Head 40.308893 12.188451 20.301283
LeftShoulder -9.126437 21.997586 13.637596
LeftArm 19.040093 17.380757 -76.673223
LeftForeArm 18.484161 -0.000000 24.195230
LeftHand -12.467452 -0.000000 -12.152573
LeftHandThumb1 -26.253704 0.000000 33.147579
RightShoulder -38.499307 -50.159962 21.696315
RightArm 56.494182 -19.579664 45.164037
RightForeArm -2.284561 -0.000000 21.221268
RightHand -4.993860 -0.000000 28.337081
RightHandThumb1 -24.326973 -0.000000 -32.862282
LeftUpLeg -12.968536 0.520319 -6.023785
LeftLeg 17.023334 -0.000000 -0.000000
LeftFoot -15.499916 8.749631 -0.471259
LeftToeBase 3.822374 -0.000000 -0.000000
RightUpLeg -73.253452 2.393608 4.616315
RightLeg 62.245254 -0.000000 -0.000000
RightFoot 11.305273 -15.890566 10.089575
RightToeBase -6.026343 -0.000000 0.000000
922
root 6.542738 35.920719 3.193896 11.358116 -59.952465 -360.696752
Spine -12.746647 -1.923536 -7.625742
Head 40.335725 12.349550 20.266448
LeftShoulder -9.164055 22.036923 13.609685
LeftArm 18.917590 17.296090 -76.714751
LeftForeArm 18.586028 -0.000000 24.034772
LeftHand -12.530280 -0.000000 -12.224748
LeftHandThumb1 -26.253704 0.000000 33.147579
RightShoulder -38.438364 -50.164249 21.632251
RightArm 56.564922 -19.582661 45.171330
RightForeArm -1.728756 -0.000000 21.311360
RightHand -5.263229 -0.000000 28.349855
RightHandThumb1 -24.326973 -0.000000 -32.862282
LeftUpLeg -13.146292 0.337332 -6.129905
LeftLeg 17.065356 -0.000000 -0.000000
LeftFoot -15.534626 9.145100 -0.549489
LeftToeBase 3.655104 -0.000000 -0.000000
RightUpLeg -73.432563 2.495204 4.527881
RightLeg 62.357860 -0.000000 -0.000000
RightFoot 15.065556 -14.864430 11.999177
RightToeBase -3.920684 -0.000000 0.000000
923
root 6.558552 35.912292 3.193988 11.340674 -60.260971 -360.554816
Spine -12.905731 -1.886116 -7.627777
Head 40.398476 12.522129 20.244635
LeftShoulder -9.214041 22.089267 13.563755
LeftArm 18.800504 17.225992 -76.731382
LeftForeArm 18.588122 -0.000000 23.877473
LeftHand -12.621565 -0.000000 -12.228525
LeftHandThumb1 -26.253704 0.000000 33.147579
RightShoulder -38.386212 -50.173911 21.583240
RightArm 56.672959 -19.604567 45.104753
RightForeArm -1.172711 -0.000000 21.383540
RightHand -5.375306 -0.000000 28.831400
RightHandThumb1 -24.326973 -0.000000 -32.862282
LeftUpLeg -13.252497 0.216811 -6.256576
LeftLeg 17.044887 -0.000000 -0.000000
LeftFoot -15.545255 9.516351 -0.573075
LeftToeBase 3.484225 -0.000000 -0.000000
RightUpLeg -73.578938 2.596585 4.457094
RightLeg 62.475412 -0.000000 -0.000000
RightFoot 18.945784 -14.049873 13.929414
RightToeBase -2.119829 -0.000000 0.000000
924
root 6.578990 35.903459 3.191014 11.353294 -60.542001 -360.416139
Spine -13.078202 -1.868965 -7.627442
Head 40.431419 12.652969 20.214504
LeftShoulder -9.239238 22.188140 13.536887
LeftArm 18.747591 17.136838 -76.755770
LeftForeArm 18.634061 0.000000 23.677660
LeftHand -12.605905 0.000000 -12.188782
LeftHandThumb1 -26.253704 0.000000 33.147579
RightShoulder -38.271150 -50.144454 21.492109
RightArm 56.657754 -19.506055 45.315856
RightForeArm -0.778872 -0.000000 21.387697
RightHand -5.445712 0.000000 29.461285
RightHandThumb1 -24.326973 -0.000000 -32.862282
LeftUpLeg -13.414265 0.136331 -6.379897
LeftLeg 17.051660 -0.000000 -0.000000
LeftFoot -15.550310 9.844494 -0.509938
LeftToeBase 3.348100 -0.000000 -0.000000
RightUpLeg -73.747126 2.643239 4.463857
RightLeg 62.578991 -0.000000 -0.000000
RightFoot 22.880083 -13.533842 15.827480
RightToeBase 0.019977 -0.000000 -0.000000
925
root 6.594459 35.895099 3.185118 11.380402 -60.782158 -360.305931
Spine -13.244410 -1.904600 -7.616719
Head 40.472879 12.797772 20.188677
LeftShoulder -9.305068 22.327841 13.492820
LeftArm 18.769605 17.105968 -76.720179
LeftForeArm 18.599614 -0.000000 23.447756
LeftHand -12.571630 0.000000 -12.212917
LeftHandThumb1 -26.253704 0.000000 33.147579
RightShoulder -38.283361 -50.164275 21.542268
RightArm 56.802084 -19.448864 45.254988
RightForeArm -0.088423 -0.000000 21.376698
RightHand -5.554522 -0.000000 30.104787
RightHandThumb1 -24.326973 -0.000000 -32.862282
LeftUpLeg -13.577738 0.115007 -6.478606
LeftLeg 17.086656 -0.000000 -0.000000
LeftFoot -15.544123 10.086967 -0.434418
LeftToeBase 3.131139 -0.000000 -0.000000
RightUpLeg -73.873840 2.671156 4.535614
RightLeg 62.686837 -0.000000 -0.000000
RightFoot 26.689259 -13.370924 17.807792
RightToeBase 2.005593 -0.000000 -0.000000
926
root 6.612526 35.887968 3.173981 11.507017 -60.982375 -360.228293
Spine -13.482670 -1.992432 -7.580221
Head 40.547615 12.922176 20.186472
LeftShoulder -9.332587 22.416817 13.484744
LeftArm 18.712223 17.107408 -76.711289
LeftForeArm 18.526532 -0.000000 23.226418
LeftHand -12.683863 -0.000000 -12.132886
LeftHandThumb1 -26.253704 0.000000 33.147579
RightShoulder -38.333096 -50.169945 21.605749
RightArm 56.934896 -19.380215 45.243543
RightForeArm 0.518763 -0.000000 21.390784
RightHand -5.639735 -0.000000 31.288988
RightHandThumb1 -24.326973 -0.000000 -32.862282
LeftUpLeg -13.846699 0.117925 -6.549184
LeftLeg 17.168974 -0.000000 -0.000000
LeftFoot -15.555086 10.256491 -0.378589
LeftToeBase 2.943425 -0.000000 -0.000000
RightUpLeg -74.052145 2.706287 4.591243
RightLeg 62.823704 -0.000000 -0.000000
RightFoot 29.746394 -13.656227 20.446089
RightToeBase 4.690765 -0.000000 -0.000000
